<mxfile host="app.diagrams.net" modified="2023-07-31T15:12:18.325Z" agent="Mozilla/5.0 (Windows NT 10.0; Win64; x64) AppleWebKit/537.36 (KHTML, like Gecko) Chrome/115.0.0.0 Safari/537.36" etag="6w_zUNeXb4b-W5LDp9oQ" version="21.6.6" type="google">
  <diagram name="Page-1" id="zNvY1Q-mkukfnYkPsvm0">
    <mxGraphModel dx="2074" dy="1132" grid="1" gridSize="1" guides="1" tooltips="1" connect="1" arrows="1" fold="1" page="1" pageScale="1" pageWidth="1100" pageHeight="850" background="none" math="0" shadow="0">
      <root>
        <mxCell id="0" />
        <mxCell id="1" parent="0" />
        <mxCell id="ftaxgc9b8qG_yVkUSLVN-4" value="charPressed" style="html=1;shadow=0;dashed=0;align=center;verticalAlign=middle;shape=mxgraph.arrows2.arrow;dy=0;dx=10;notch=0;" parent="1" vertex="1">
          <mxGeometry x="50" y="300" width="100" height="30" as="geometry" />
        </mxCell>
        <mxCell id="ftaxgc9b8qG_yVkUSLVN-33" style="edgeStyle=elbowEdgeStyle;rounded=0;orthogonalLoop=1;jettySize=auto;html=1;exitX=0;exitY=0;exitDx=45;exitDy=30;exitPerimeter=0;strokeColor=default;strokeWidth=1;startArrow=none;startFill=0;" parent="1" source="ftaxgc9b8qG_yVkUSLVN-1" target="ftaxgc9b8qG_yVkUSLVN-1" edge="1">
          <mxGeometry relative="1" as="geometry" />
        </mxCell>
        <mxCell id="ftaxgc9b8qG_yVkUSLVN-88" value="8" style="text;html=1;align=center;verticalAlign=middle;resizable=0;points=[];autosize=1;strokeColor=none;fillColor=none;" parent="1" vertex="1">
          <mxGeometry x="149" y="285" width="26" height="27" as="geometry" />
        </mxCell>
        <mxCell id="ti_yVKyVfyk7ufe0vYCp-29" value="" style="line;strokeWidth=2;html=1;" parent="1" vertex="1">
          <mxGeometry x="150" y="310" width="74" height="10" as="geometry" />
        </mxCell>
        <mxCell id="ti_yVKyVfyk7ufe0vYCp-30" value="" style="endArrow=none;html=1;rounded=0;strokeWidth=1;" parent="1" edge="1">
          <mxGeometry width="50" height="50" relative="1" as="geometry">
            <mxPoint x="171" y="322" as="sourcePoint" />
            <mxPoint x="159" y="307" as="targetPoint" />
          </mxGeometry>
        </mxCell>
        <mxCell id="sxkvKhOSrN93qHUiDIvT-4" style="edgeStyle=orthogonalEdgeStyle;rounded=0;orthogonalLoop=1;jettySize=auto;html=1;exitX=0;exitY=0.5;exitDx=0;exitDy=0;exitPerimeter=0;entryX=1;entryY=0.5;entryDx=0;entryDy=0;entryPerimeter=0;strokeWidth=2;endArrow=none;endFill=0;" parent="1" source="ti_yVKyVfyk7ufe0vYCp-32" target="ti_yVKyVfyk7ufe0vYCp-29" edge="1">
          <mxGeometry relative="1" as="geometry" />
        </mxCell>
        <mxCell id="ti_yVKyVfyk7ufe0vYCp-32" value="" style="line;strokeWidth=2;html=1;" parent="1" vertex="1">
          <mxGeometry x="312" y="257.5" width="147" height="10" as="geometry" />
        </mxCell>
        <mxCell id="ti_yVKyVfyk7ufe0vYCp-34" value="" style="line;strokeWidth=2;html=1;" parent="1" vertex="1">
          <mxGeometry x="311" y="370" width="147" height="10" as="geometry" />
        </mxCell>
        <mxCell id="ftaxgc9b8qG_yVkUSLVN-12" value="" style="whiteSpace=wrap;html=1;aspect=fixed;" parent="1" vertex="1">
          <mxGeometry x="400" y="210" width="100" height="100" as="geometry" />
        </mxCell>
        <mxCell id="ti_yVKyVfyk7ufe0vYCp-45" value="" style="line;strokeWidth=2;html=1;" parent="1" vertex="1">
          <mxGeometry x="499" y="370" width="115" height="10" as="geometry" />
        </mxCell>
        <mxCell id="ftaxgc9b8qG_yVkUSLVN-1" value="sevenSegs" style="html=1;shadow=0;dashed=0;align=center;verticalAlign=middle;shape=mxgraph.arrows2.arrow;dy=0;dx=10;notch=0;" parent="1" vertex="1">
          <mxGeometry x="601" y="358" width="80" height="30" as="geometry" />
        </mxCell>
        <mxCell id="ti_yVKyVfyk7ufe0vYCp-46" value="" style="line;strokeWidth=2;html=1;" parent="1" vertex="1">
          <mxGeometry x="500" y="255" width="161" height="10" as="geometry" />
        </mxCell>
        <mxCell id="ftaxgc9b8qG_yVkUSLVN-13" value="" style="whiteSpace=wrap;html=1;aspect=fixed;" parent="1" vertex="1">
          <mxGeometry x="400" y="330" width="101" height="101" as="geometry" />
        </mxCell>
        <mxCell id="sxkvKhOSrN93qHUiDIvT-2" value="color" style="html=1;shadow=0;dashed=0;align=center;verticalAlign=middle;shape=mxgraph.arrows2.arrow;dy=0;dx=10;notch=0;" parent="1" vertex="1">
          <mxGeometry x="660" y="247" width="80" height="30" as="geometry" />
        </mxCell>
        <mxCell id="sxkvKhOSrN93qHUiDIvT-7" value="" style="edgeStyle=orthogonalEdgeStyle;rounded=0;orthogonalLoop=1;jettySize=auto;html=1;exitX=0;exitY=0.5;exitDx=0;exitDy=0;exitPerimeter=0;entryX=1;entryY=0.5;entryDx=0;entryDy=0;entryPerimeter=0;endArrow=none;endFill=0;strokeWidth=2;" parent="1" source="ti_yVKyVfyk7ufe0vYCp-34" target="_YO2aA6_E4uApnRCDDm2-28" edge="1">
          <mxGeometry relative="1" as="geometry">
            <mxPoint x="311" y="375" as="sourcePoint" />
            <mxPoint x="224" y="315" as="targetPoint" />
            <Array as="points">
              <mxPoint x="268" y="375" />
              <mxPoint x="268" y="315" />
            </Array>
          </mxGeometry>
        </mxCell>
        <mxCell id="_YO2aA6_E4uApnRCDDm2-28" value="" style="shape=image;html=1;verticalAlign=top;verticalLabelPosition=bottom;labelBackgroundColor=#ffffff;imageAspect=0;aspect=fixed;image=https://cdn4.iconfinder.com/data/icons/essential-app-2/16/record-round-circle-dot-128.png" parent="1" vertex="1">
          <mxGeometry x="264" y="312" width="7.5" height="7.5" as="geometry" />
        </mxCell>
        <mxCell id="sxkvKhOSrN93qHUiDIvT-8" value="24" style="text;html=1;align=center;verticalAlign=middle;resizable=0;points=[];autosize=1;strokeColor=none;fillColor=none;" parent="1" vertex="1">
          <mxGeometry x="547" y="220" width="32" height="27" as="geometry" />
        </mxCell>
        <mxCell id="sxkvKhOSrN93qHUiDIvT-9" value="7" style="text;html=1;align=center;verticalAlign=middle;resizable=0;points=[];autosize=1;strokeColor=none;fillColor=none;" parent="1" vertex="1">
          <mxGeometry x="537" y="343" width="26" height="27" as="geometry" />
        </mxCell>
        <mxCell id="sxkvKhOSrN93qHUiDIvT-10" value="" style="endArrow=none;html=1;rounded=0;strokeWidth=1;" parent="1" edge="1">
          <mxGeometry width="50" height="50" relative="1" as="geometry">
            <mxPoint x="558" y="384" as="sourcePoint" />
            <mxPoint x="546" y="369" as="targetPoint" />
          </mxGeometry>
        </mxCell>
        <mxCell id="sxkvKhOSrN93qHUiDIvT-11" value="" style="endArrow=none;html=1;rounded=0;strokeWidth=1;" parent="1" edge="1">
          <mxGeometry width="50" height="50" relative="1" as="geometry">
            <mxPoint x="571" y="266" as="sourcePoint" />
            <mxPoint x="559" y="251" as="targetPoint" />
          </mxGeometry>
        </mxCell>
        <mxCell id="sxkvKhOSrN93qHUiDIvT-12" value="ASCII_TO_24BIT" style="text;html=1;strokeColor=none;fillColor=none;align=center;verticalAlign=middle;whiteSpace=wrap;rounded=0;" parent="1" vertex="1">
          <mxGeometry x="423" y="185" width="60" height="30" as="geometry" />
        </mxCell>
        <mxCell id="sxkvKhOSrN93qHUiDIvT-14" value="ASCII_TO_7SEG" style="text;html=1;strokeColor=none;fillColor=none;align=center;verticalAlign=middle;whiteSpace=wrap;rounded=0;" parent="1" vertex="1">
          <mxGeometry x="422" y="307" width="60" height="30" as="geometry" />
        </mxCell>
      </root>
    </mxGraphModel>
  </diagram>
</mxfile>
